<svg width="18" height="18" viewBox="0 0 18 18" fill="none" xmlns="http://www.w3.org/2000/svg">
<path d="M10.7881 7.26221L7.3291 10.7212C6.88477 10.2769 6.61133 9.66846 6.61133 8.9917C6.61133 7.63818 7.70508 6.54443 9.05859 6.54443C9.73535 6.54443 10.3438 6.81787 10.7881 7.26221Z" stroke="white" stroke-width="1.02539" stroke-linecap="round" stroke-linejoin="round"/>
<path d="M13.0371 4.73291C11.8408 3.83057 10.4736 3.33838 9.05859 3.33838C6.64551 3.33838 4.39648 4.76025 2.83105 7.22119C2.21582 8.18506 2.21582 9.80518 2.83105 10.769C3.37109 11.6167 4 12.3481 4.68359 12.936" stroke="white" stroke-width="1.02539" stroke-linecap="round" stroke-linejoin="round"/>
<path d="M6.61133 14.1392C7.39063 14.4673 8.21777 14.645 9.05859 14.645C11.4717 14.645 13.7207 13.2231 15.2861 10.7622C15.9014 9.79834 15.9014 8.17822 15.2861 7.21436C15.0605 6.85889 14.8145 6.52393 14.5615 6.20947" stroke="white" stroke-width="1.02539" stroke-linecap="round" stroke-linejoin="round"/>
<path d="M11.458 9.47021C11.2803 10.4341 10.4941 11.2202 9.53027 11.3979" stroke="white" stroke-width="1.02539" stroke-linecap="round" stroke-linejoin="round"/>
<path d="M7.3291 10.7212L2.22266 15.8276" stroke="white" stroke-width="1.02539" stroke-linecap="round" stroke-linejoin="round"/>
<path d="M15.8945 2.15576L10.7881 7.26221" stroke="white" stroke-width="1.02539" stroke-linecap="round" stroke-linejoin="round"/>
</svg>
