<svg width="44" height="32" viewBox="0 0 44 32" fill="none" xmlns="http://www.w3.org/2000/svg">
<g clip-path="url(#clip0_23_268)">
<path d="M16.9175 25.2839C16.9175 25.2839 21.3217 24.229 21.4012 19.8669C21.4083 18.7332 21.1233 17.6169 20.5735 16.6255C20.0237 15.634 19.2277 14.801 18.2624 14.2067C17.7802 13.9055 17.2759 13.6412 16.7538 13.4161C15.3174 12.8092 14.0378 11.8839 13.0115 10.71C12.7906 10.4506 12.5837 10.1797 12.3917 9.89836C12.2891 9.74107 12.1502 9.61079 11.9866 9.51853C11.8231 9.42628 11.6397 9.37476 11.4521 9.36834C11.2644 9.36192 11.0779 9.40077 10.9085 9.48163C10.739 9.56248 10.5915 9.68296 10.4784 9.83287L10.3872 9.9732C10.2929 10.141 10.2422 10.3298 10.2398 10.5222C10.2373 10.7147 10.2832 10.9047 10.3732 11.0748C10.8573 12.0104 12.0876 14.1155 13.9751 15.175C13.9751 15.175 8.94874 14.8101 7.34423 8.03656C7.34423 8.03656 6.86475 5.10822 4.72463 3.91069C4.62144 3.85406 4.50351 3.83003 4.38639 3.84177C4.26927 3.85351 4.15845 3.90046 4.06854 3.97643C3.97864 4.05241 3.91386 4.15384 3.88276 4.26737C3.85166 4.38089 3.85568 4.50118 3.89431 4.61237C4.2662 5.6836 4.73165 7.63661 4.96086 11.0047C4.96086 11.0047 5.00765 17.3198 12.553 20.0938C13.6202 20.4726 14.5744 21.1148 15.3271 21.9607C16.0799 22.8067 16.6068 23.8291 16.859 24.933C16.873 25.05 16.8964 25.1576 16.9175 25.2839Z" fill="white"/>
<path d="M36.2418 28.4694C36.065 28.4694 35.8954 28.3992 35.7704 28.2742C35.6454 28.1492 35.5752 27.9796 35.5752 27.8028C35.5752 27.626 35.6454 27.4565 35.7704 27.3315C35.8954 27.2064 36.065 27.1362 36.2418 27.1362C37.1262 27.1331 37.9732 26.7791 38.5968 26.152C39.2204 25.5249 39.5696 24.6759 39.5678 23.7915C39.5624 23.7012 39.5755 23.6106 39.6064 23.5255C39.6373 23.4404 39.6853 23.3625 39.7474 23.2966C39.8095 23.2307 39.8844 23.1782 39.9676 23.1423C40.0507 23.1064 40.1403 23.0879 40.2308 23.0879C40.3214 23.0879 40.411 23.1064 40.4941 23.1423C40.5773 23.1782 40.6522 23.2307 40.7143 23.2966C40.7764 23.3625 40.8243 23.4404 40.8552 23.5255C40.8861 23.6106 40.8993 23.7012 40.8939 23.7915C40.8939 25.0277 40.4046 26.2137 39.5329 27.0902C38.6612 27.9668 37.478 28.4626 36.2418 28.4694Z" fill="#587EEC"/>
<path d="M7.75832 28.4694C6.52254 28.462 5.3399 27.9659 4.4687 27.0894C3.59749 26.213 3.1085 25.0274 3.10852 23.7916C3.10852 23.7046 3.12564 23.6186 3.1589 23.5383C3.19216 23.4579 3.24092 23.385 3.30238 23.3235C3.36385 23.262 3.43683 23.2133 3.51713 23.18C3.59744 23.1468 3.6835 23.1296 3.77043 23.1296C3.85735 23.1296 3.94343 23.1468 4.02374 23.18C4.10404 23.2133 4.17702 23.262 4.23849 23.3235C4.29995 23.385 4.34871 23.4579 4.38197 23.5383C4.41524 23.6186 4.43235 23.7046 4.43235 23.7916C4.43049 24.676 4.77971 25.5249 5.40331 26.152C6.02692 26.7792 6.87393 27.1331 7.75832 27.1362C7.93511 27.1362 8.10466 27.2065 8.22968 27.3315C8.35469 27.4565 8.42491 27.626 8.42491 27.8028C8.42491 27.9796 8.35469 28.1492 8.22968 28.2742C8.10466 28.3992 7.93511 28.4694 7.75832 28.4694Z" fill="white"/>
<path d="M27.0825 25.2839C27.0825 25.2839 22.6783 24.229 22.5987 19.8669C22.5921 18.7331 22.8776 17.6167 23.4278 16.6252C23.978 15.6338 24.7743 14.8009 25.7399 14.2067C26.2213 13.9054 26.7249 13.6412 27.2462 13.4161C28.6826 12.8092 29.9622 11.8839 30.9885 10.71C31.2101 10.4506 31.4178 10.1797 31.6107 9.89836C31.7133 9.74153 31.8521 9.61167 32.0154 9.51972C32.1788 9.42777 32.3618 9.37642 32.5491 9.37C32.7365 9.36358 32.9226 9.40228 33.0918 9.48283C33.261 9.56338 33.4084 9.68343 33.5216 9.83287C33.5547 9.87784 33.5851 9.9247 33.6128 9.9732C33.7074 10.1408 33.7585 10.3295 33.7614 10.5219C33.7642 10.7144 33.7188 10.9045 33.6292 11.0748C33.145 12.0104 31.9147 14.1155 30.0272 15.175C30.0272 15.175 35.0512 14.8101 36.6581 8.03656C36.6581 8.03656 37.1259 5.10822 39.2753 3.91069C39.3785 3.85406 39.4965 3.83003 39.6136 3.84177C39.7307 3.85351 39.8415 3.90046 39.9314 3.97643C40.0213 4.05241 40.0861 4.15384 40.1172 4.26737C40.1483 4.38089 40.1443 4.50118 40.1057 4.61237C39.7361 5.6836 39.2683 7.63661 39.0391 11.0047C39.0391 11.0047 38.9923 17.3198 31.4493 20.0938C30.3817 20.4718 29.4271 21.1138 28.6742 21.9599C27.9213 22.806 27.3947 23.8287 27.1433 24.933C27.1269 25.05 27.1035 25.1576 27.0825 25.2839Z" fill="#587EEC"/>
<path d="M26.4814 8.53241C26.3178 9.33075 25.9485 10.0725 25.4101 10.6842C24.4972 11.8074 23.3276 12.6946 22 13.2711C21.0062 12.8429 20.0987 12.2374 19.3219 11.4841C19.1535 11.3181 18.9898 11.145 18.8331 10.9672C18.7512 10.876 18.6717 10.7848 18.5992 10.6889C18.0585 10.079 17.6896 9.33641 17.5303 8.53709C17.4063 7.73951 17.6379 6.84604 18.2624 6.33381C18.9243 5.80054 19.8996 5.79118 20.6668 6.12565C21.0378 6.28851 21.3582 6.54814 21.5944 6.87733C21.8305 7.20653 21.9739 7.59318 22.0093 7.99679C22.0443 7.59336 22.1872 7.20677 22.423 6.87756C22.6588 6.54834 22.9788 6.28863 23.3495 6.12565C24.1261 5.79118 25.0944 5.80054 25.754 6.33381C26.1008 6.62684 26.3422 7.0252 26.4416 7.4682C26.4635 7.549 26.4806 7.631 26.4931 7.71379C26.5292 7.98577 26.5253 8.26157 26.4814 8.53241Z" fill="white"/>
<path d="M32.1672 7.84946C34.3219 7.84946 36.0686 6.0923 36.0686 3.92473C36.0686 1.75716 34.3219 0 32.1672 0C30.0126 0 28.2659 1.75716 28.2659 3.92473C28.2659 6.0923 30.0126 7.84946 32.1672 7.84946Z" fill="white"/>
<path d="M11.8326 7.84946C13.9873 7.84946 15.734 6.0923 15.734 3.92473C15.734 1.75716 13.9873 0 11.8326 0C9.67796 0 7.93127 1.75716 7.93127 3.92473C7.93127 6.0923 9.67796 7.84946 11.8326 7.84946Z" fill="#587EEC"/>
<path d="M29.6086 25.555C29.8924 26.6187 30.4284 27.5983 31.1714 28.4107C31.9143 29.2231 32.8423 29.8443 33.8765 30.2218C34.9106 30.5992 36.0206 30.7216 37.1122 30.5787C38.2038 30.4358 39.2448 30.0317 40.147 29.4008C41.0491 28.7698 41.7858 27.9306 42.2946 26.9543C42.8034 25.978 43.0692 24.8935 43.0695 23.7925C43.0698 22.6916 42.8046 21.6069 42.2964 20.6303C41.7882 19.6537 41.052 18.8141 40.1502 18.1826V15.252H42.4447" stroke="white" stroke-width="1.85945" stroke-linecap="round" stroke-linejoin="round"/>
<path d="M14.3915 25.555C14.1073 26.6178 13.571 27.5965 12.8281 28.408C12.0852 29.2196 11.1576 29.84 10.1239 30.2168C9.09023 30.5936 7.98094 30.7157 6.89006 30.5726C5.79918 30.4295 4.75888 30.0255 3.85734 29.3949C2.9558 28.7642 2.21959 27.9255 1.71112 26.9498C1.20264 25.9742 0.936897 24.8903 0.936402 23.7901C0.935907 22.6898 1.20068 21.6057 1.70828 20.6296C2.21587 19.6535 2.95133 18.8141 3.8523 18.1826V15.252H1.55547" stroke="#587EEC" stroke-width="1.85945" stroke-linecap="round" stroke-linejoin="round"/>
</g>
<defs>
<clipPath id="clip0_23_268">
<rect width="44" height="31.6317" fill="white"/>
</clipPath>
</defs>
</svg>
