<svg width="47" height="57" viewBox="0 0 47 57" fill="none" xmlns="http://www.w3.org/2000/svg">
<path d="M46.0934 20.1295H30.9463V56.423H25.8973V39.6721H20.8482V56.423H15.7992V20.1295H0.6521V14.5458H46.0934V20.1295ZM23.3728 0.586792C24.7118 0.586792 25.9961 1.17506 26.943 2.2222C27.8898 3.26933 28.4218 4.68954 28.4218 6.17041C28.4218 7.65128 27.8898 9.07149 26.943 10.1186C25.9961 11.1658 24.7118 11.754 23.3728 11.754C22.0337 11.754 20.7494 11.1658 19.8026 10.1186C18.8557 9.07149 18.3237 7.65128 18.3237 6.17041C18.3237 3.0715 20.5705 0.586792 23.3728 0.586792Z" fill="#EC5863"/>
</svg>
