<svg width="47" height="56" viewBox="0 0 47 56" fill="none" xmlns="http://www.w3.org/2000/svg">
<path d="M46.0934 19.5427H30.9463V55.8362H25.8973V39.0853H20.8482V55.8362H15.7992V19.5427H0.6521V13.959H46.0934V19.5427ZM23.3728 0C24.7118 0 25.9961 0.588272 26.943 1.6354C27.8898 2.68253 28.4218 4.10275 28.4218 5.58362C28.4218 7.06449 27.8898 8.4847 26.943 9.53183C25.9961 10.579 24.7118 11.1672 23.3728 11.1672C22.0337 11.1672 20.7494 10.579 19.8026 9.53183C18.8557 8.4847 18.3237 7.06449 18.3237 5.58362C18.3237 2.48471 20.5705 0 23.3728 0Z" fill="#EC5863"/>
</svg>
